<svg xmlns="http://www.w3.org/2000/svg" viewBox="0 0 190.48 234.44"><defs><style>.cls-1{fill:#fff;}.cls-2{fill:#ff2116;}.cls-3{fill:#2c2c2c;}</style></defs><g id="Layer_2" data-name="Layer 2"><g id="Capa_1" data-name="Capa 1"><g id="Surface"><g id="Document"><path class="cls-1" d="M22,230.77A18.13,18.13,0,0,1,3.66,212.46V22A18.14,18.14,0,0,1,22,3.66H134.8a13.32,13.32,0,0,1,10.26,4.4l37.36,37.36a14.48,14.48,0,0,1,4.4,10.26V212.46a18.13,18.13,0,0,1-18.32,18.31Z"/><path class="cls-2" d="M134.8,7.33a10,10,0,0,1,7.69,3.29L179.86,48a10.51,10.51,0,0,1,3.29,7.69V212.46a14.69,14.69,0,0,1-14.65,14.65H22A14.69,14.69,0,0,1,7.33,212.46V22A14.69,14.69,0,0,1,22,7.33H134.8m0-7.33H22A22,22,0,0,0,0,22V212.46a22,22,0,0,0,22,22H168.5a22,22,0,0,0,22-22V55.68A17.18,17.18,0,0,0,185,42.86L147.62,5.49A17.78,17.78,0,0,0,134.8,0Z"/></g></g><g id="_256" data-name="256"><path class="cls-2" d="M140.2,105.68a13.14,13.14,0,0,0-6.13-3.23,38.56,38.56,0,0,0-10-1.17,69.12,69.12,0,0,0-7,.39q-3.69.39-7.68,1.08c-1.55-1.47-3.11-3.07-4.64-4.81s-3.05-3.61-4.51-5.63c-1-1.47-2-2.93-3-4.4S95.43,85,94.6,83.52C96,79.21,97.17,75,98,71.09a51.75,51.75,0,0,0,1.35-10.65,18.43,18.43,0,0,0-1.6-7.85,7.25,7.25,0,0,0-6.82-4.42,5.64,5.64,0,0,0-2.73.75,5.34,5.34,0,0,0-2,2C84.8,53.39,84.39,57.51,85,62.46a56.6,56.6,0,0,0,4.85,16.48c-.92,2.75-1.93,5.54-3,8.45s-2.29,5.93-3.58,9.13c-1.1,2.66-2.29,5.31-3.55,7.93s-2.58,5.17-4,7.64a93.77,93.77,0,0,0-18.11,9.27c-4.41,3.09-7.07,6.12-7.53,8.86a5,5,0,0,0,.14,2.61,6.05,6.05,0,0,0,1.51,2.34,9.93,9.93,0,0,0,2.06,1.28,8.35,8.35,0,0,0,3.44.73c4.3,0,8.88-3.15,13.28-7.94a93.76,93.76,0,0,0,12.18-17.7q3-1.1,6.18-2.06c2.11-.63,4.26-1.23,6.46-1.78,2.38-.64,4.67-1.19,6.92-1.67s4.44-.9,6.63-1.26a40.64,40.64,0,0,0,14.31,8.79,30.73,30.73,0,0,0,10,1.65c2.84,0,4.64-.44,5.84-1.15a5.07,5.07,0,0,0,2.22-2.7,6.4,6.4,0,0,0,.15-3.36A4.93,4.93,0,0,0,140.2,105.68ZM87.64,51.83A4.23,4.23,0,0,1,89,50.35a3.14,3.14,0,0,1,1.76-.53,3.36,3.36,0,0,1,3,1.62,9.07,9.07,0,0,1,1,4.79,45.84,45.84,0,0,1-1,8.56c-.69,3.44-1.69,7.37-3,11.59A50.84,50.84,0,0,1,86.52,61C86.13,56.78,86.63,53.57,87.64,51.83Zm-35.9,78.58c.46-2.29,2.84-4.91,6.73-7.63a88.77,88.77,0,0,1,15.8-8.31,83.67,83.67,0,0,1-10.62,14.75c-3.3,3.48-6.23,5.4-8.43,5.4a3.26,3.26,0,0,1-1.26-.25,5.44,5.44,0,0,1-1.12-.67,3.83,3.83,0,0,1-1-1.58A3.59,3.59,0,0,1,51.74,130.41Zm55.5-27.29c-1.93.36-3.94.77-6,1.23s-4.17,1-6.27,1.51c-1.84.46-3.67,1-5.48,1.52s-3.59,1.14-5.33,1.78c1-1.92,2-3.8,2.84-5.63s1.65-3.62,2.29-5.36c.82-2,1.65-4.07,2.45-6.16s1.58-4.19,2.31-6.29q1.1,1.92,2.34,3.84c.82,1.28,1.69,2.57,2.61,3.85q1.92,2.61,4,5.06c1.37,1.62,2.79,3.18,4.26,4.65Zm3.66,1.09a74.52,74.52,0,0,1,12-1.26,39.21,39.21,0,0,1,8,.53,6.49,6.49,0,0,1,3.74,2.11,4.64,4.64,0,0,1-2,7.1,9,9,0,0,1-5.43.32,35.88,35.88,0,0,1-9-3.64A49.78,49.78,0,0,1,110.9,104.21Z"/></g><path class="cls-3" d="M57.91,168.19c0-.05,0-.1,0-.15a.37.37,0,0,1,0-.11.16.16,0,0,1,.09-.07.38.38,0,0,1,.16,0c.5,0,1.06-.05,1.66-.06l1.93-.05c.69,0,1.4,0,2.14,0h2.26a17,17,0,0,1,5.56.83,10.29,10.29,0,0,1,3.85,2.28,9.19,9.19,0,0,1,2.22,3.42,11.89,11.89,0,0,1,.72,4.23,12.11,12.11,0,0,1-1,5.08A9.32,9.32,0,0,1,74.84,187a11.56,11.56,0,0,1-4,2,17.82,17.82,0,0,1-4.94.65H65.1l-.59,0-.51,0h-.56V201.6a.76.76,0,0,1,0,.16.18.18,0,0,1-.07.11.3.3,0,0,1-.11.07H58.1a.41.41,0,0,1-.11-.07.2.2,0,0,1-.06-.11.7.7,0,0,1,0-.16V168.19Zm5.53,16.49.53,0,.54,0h.64c.24,0,.5,0,.81,0a11.28,11.28,0,0,0,2.63-.28,6.11,6.11,0,0,0,2.24-1,4.74,4.74,0,0,0,1.56-1.9,7.33,7.33,0,0,0,.59-3.05,7.1,7.1,0,0,0-.44-2.59,4.75,4.75,0,0,0-1.29-1.86,5.56,5.56,0,0,0-2-1.12,9.45,9.45,0,0,0-2.78-.37h-.91l-.83,0-.7,0-.54,0v12Z"/><path class="cls-3" d="M84.09,168.24c0-.07,0-.12,0-.17a.39.39,0,0,1,.06-.11.19.19,0,0,1,.11-.08l.18,0,1.27-.05,1.89-.05,2.33,0,2.56,0a18.26,18.26,0,0,1,6.82,1.2,12.79,12.79,0,0,1,4.86,3.39,14.34,14.34,0,0,1,2.92,5.22,22,22,0,0,1,1,6.74,22.39,22.39,0,0,1-1.51,8.56,14.4,14.4,0,0,1-9,8.41,17.27,17.27,0,0,1-5.39.86H90.06l-2.23,0-2,0-1.43,0a.32.32,0,0,1-.14,0,.18.18,0,0,1-.09-.08.31.31,0,0,1-.06-.13.79.79,0,0,1,0-.17v-33.3ZM89.68,197l.63,0,.63,0,.65,0h.7a10,10,0,0,0,4-.77A8.59,8.59,0,0,0,99.44,194a11.07,11.07,0,0,0,2.1-4,19.74,19.74,0,0,0,.79-5.67,17,17,0,0,0-.75-5.43,9.52,9.52,0,0,0-2.09-3.65,8.25,8.25,0,0,0-3.14-2.06,11.05,11.05,0,0,0-3.86-.64h-.77l-.71,0-.68,0-.65,0V197Z"/><path class="cls-3" d="M119.8,201.54a.92.92,0,0,1,0,.19.39.39,0,0,1-.06.13.26.26,0,0,1-.11.07.44.44,0,0,1-.17,0h-4.87a.41.41,0,0,1-.16,0,.26.26,0,0,1-.11-.07.23.23,0,0,1-.06-.13.53.53,0,0,1,0-.19V168.13a.39.39,0,0,1,0-.16.2.2,0,0,1,.06-.11.24.24,0,0,1,.11-.06.38.38,0,0,1,.16,0h17.06a.5.5,0,0,1,.19,0,.24.24,0,0,1,.11.06.3.3,0,0,1,.07.11s0,.1,0,.16l.13,1.08.13,1.08.12,1.07.13,1.08a.3.3,0,0,1,0,.19.19.19,0,0,1-.07.13.21.21,0,0,1-.14.07.59.59,0,0,1-.2,0H119.8v9.73h11.06l.17,0a.16.16,0,0,1,.1.05.18.18,0,0,1,.07.11.92.92,0,0,1,0,.19v4.3a.92.92,0,0,1,0,.19.21.21,0,0,1-.07.11.16.16,0,0,1-.1,0H119.8v13.93Z"/></g></g></svg>