<?xml version="1.0" encoding="utf-8"?>
<!-- Generator: Adobe Illustrator 25.0.1, SVG Export Plug-In . SVG Version: 6.00 Build 0)  -->
<svg version="1.1" id="favorite_black_24dp" xmlns="http://www.w3.org/2000/svg" xmlns:xlink="http://www.w3.org/1999/xlink"
	 x="0px" y="0px" viewBox="0 0 32 32" style="enable-background:new 0 0 32 32;" xml:space="preserve">
<style type="text/css">
	.st0{fill:none;}
	.st1{fill:#DD3D3D;}
	.st2{fill:#FFFFFF;}
</style>
<path id="패스_27" class="st0" d="M0,0h32v32H0V0z"/>
<g id="패스_28">
	<path class="st1" d="M14.7,26.7C7.6,20.2,3,15.9,3,10.9C2.9,7.2,5.9,4.1,9.6,4l0.1,0c2.1,0,4.2,1,5.5,2.6L16,7.6l0.8-0.9
		C18.1,5,20.2,4,22.3,4c1.8,0,3.5,0.7,4.7,2c1.3,1.3,2,3,2,4.8l0,0.1c0,5-4.6,9.3-11.6,15.8L16,28L14.7,26.7z"/>
	<path class="st2" d="M9.7,5c1.9,0,3.6,0.8,4.8,2.3L16,9.1l1.5-1.9C18.7,5.9,20.5,5,22.3,5c3.2,0,5.7,2.6,5.7,5.7l0,0.2
		c0,4.5-4.5,8.7-11.3,15.1l0,0L16,26.6L15.3,26C8.5,19.6,4,15.5,4,10.9C3.9,7.7,6.4,5.1,9.7,5L9.7,5 M22.3,3c-2.4,0-4.7,1.1-6.3,3
		c-1.6-1.9-3.9-3-6.3-3C9.6,3,9.6,3,9.5,3C5.3,3.1,1.9,6.6,2,10.9c0,5.4,4.8,9.8,12,16.6l2,1.9l2-1.9c7.2-6.7,12-11.1,12-16.6
		c0-0.1,0-0.1,0-0.2C30,6.5,26.6,3,22.3,3L22.3,3z"/>
</g>
</svg>
