<svg id="settings_black_24dp" xmlns="http://www.w3.org/2000/svg" width="32" height="32" viewBox="0 0 32 32">
  <path id="패스_49" data-name="패스 49" d="M0,0H32V32H0Z" fill="none"/>
  <path id="패스_50" data-name="패스 50" d="M26.486,17.372a10.824,10.824,0,0,0,.1-1.372,10.825,10.825,0,0,0-.1-1.372l2.978-2.31a.7.7,0,0,0,.169-.9L26.811,6.578a.706.706,0,0,0-.621-.35.664.664,0,0,0-.24.042l-3.514,1.4A10.331,10.331,0,0,0,20.051,6.3l-.536-3.71A.686.686,0,0,0,18.823,2H13.178a.686.686,0,0,0-.691.588L11.951,6.3A10.864,10.864,0,0,0,9.566,7.67L6.052,6.27A.8.8,0,0,0,5.8,6.228a.7.7,0,0,0-.607.35L2.369,11.422a.687.687,0,0,0,.169.9l2.978,2.31A11.016,11.016,0,0,0,5.417,16a11.016,11.016,0,0,0,.1,1.372l-2.978,2.31a.7.7,0,0,0-.169.9l2.822,4.844a.706.706,0,0,0,.621.35.664.664,0,0,0,.24-.042l3.514-1.4A10.331,10.331,0,0,0,11.951,25.7l.536,3.71a.686.686,0,0,0,.691.588h5.645a.686.686,0,0,0,.691-.588l.536-3.71a10.863,10.863,0,0,0,2.385-1.372l3.514,1.4a.8.8,0,0,0,.254.042.7.7,0,0,0,.607-.35l2.822-4.844a.7.7,0,0,0-.169-.9Zm-2.794-2.394A7.421,7.421,0,0,1,23.763,16c0,.294-.028.6-.071,1.022l-.2,1.582,1.256.98,1.524,1.176-.988,1.694-1.792-.714-1.468-.588-1.27.952a8.281,8.281,0,0,1-1.764,1.022l-1.5.6-.226,1.582-.282,1.89H15.013l-.268-1.89-.226-1.582-1.5-.6a8.023,8.023,0,0,1-1.736-.994L10,21.152l-1.5.6-1.792.714-.988-1.694L7.251,19.6l1.256-.98-.2-1.582C8.267,16.6,8.239,16.28,8.239,16s.028-.6.071-1.022l.2-1.582-1.256-.98L5.727,11.24l.988-1.694,1.792.714,1.468.588,1.27-.952a8.281,8.281,0,0,1,1.764-1.022l1.5-.6.226-1.582.282-1.89h1.962l.268,1.89.226,1.582,1.5.6a8.023,8.023,0,0,1,1.736.994l1.284.98,1.5-.6,1.792-.714.988,1.694-1.51,1.19-1.256.98.2,1.582ZM16,10.4A5.6,5.6,0,1,0,21.646,16,5.621,5.621,0,0,0,16,10.4Zm0,8.4A2.8,2.8,0,1,1,18.823,16,2.82,2.82,0,0,1,16,18.8Z" fill="#fff"/>
</svg>
