<?xml version="1.0" encoding="utf-8"?>
<!-- Generator: Adobe Illustrator 25.0.1, SVG Export Plug-In . SVG Version: 6.00 Build 0)  -->
<svg version="1.1" id="favorite_black_24dp" xmlns="http://www.w3.org/2000/svg" xmlns:xlink="http://www.w3.org/1999/xlink"
	 x="0px" y="0px" viewBox="0 0 32 32" style="enable-background:new 0 0 32 32;" xml:space="preserve">
<style type="text/css">
	.st0{fill:none;}
	.st1{fill:none;stroke:#DD3D3D;stroke-width:2;stroke-miterlimit:10;}
</style>
<path id="패스_27" class="st0" d="M0,0h32v32H0V0z"/>
<path id="패스_28" class="st1" d="M16,29.4l-2-1.9C6.8,20.7,2,16.3,2,10.9C1.9,6.6,5.3,3.1,9.5,3c0.1,0,0.1,0,0.2,0
	c2.4,0,4.7,1.1,6.3,3c1.6-1.9,3.9-3,6.3-3c4.3,0,7.7,3.5,7.7,7.7c0,0.1,0,0.1,0,0.2c0,5.4-4.8,9.9-12,16.6L16,29.4z"/>
</svg>
