<svg id="notifications_black_24dp" xmlns="http://www.w3.org/2000/svg" width="32" height="32" viewBox="0 0 32 32">
  <path id="패스_18" data-name="패스 18" d="M0,0H32V32H0Z" fill="none"/>
  <path id="패스_19" data-name="패스 19" d="M16,30a2.923,2.923,0,0,0,3-2.821H13A2.923,2.923,0,0,0,16,30Zm9-8.462V14.487c0-4.329-2.445-7.954-6.75-8.913V4.615a2.254,2.254,0,0,0-4.5,0v.959C9.46,6.533,7,10.144,7,14.487v7.051L4,24.359v1.41H28v-1.41Zm-3,1.41H10V14.487c0-3.5,2.265-6.346,6-6.346s6,2.849,6,6.346Z" fill="#222"/>
</svg>
