<svg id="people_black_24dp" xmlns="http://www.w3.org/2000/svg" width="32" height="32" viewBox="0 0 32 32">
  <path id="패스_55" data-name="패스 55" d="M0,0H32V32H0Z" fill="none"/>
  <path id="패스_56" data-name="패스 56" d="M11.955,17.444C8.627,17.444,2,19.108,2,22.421V24.91H21.91V22.421C21.91,19.108,15.283,17.444,11.955,17.444ZM5.328,22.066a13.712,13.712,0,0,1,6.627-1.778,13.712,13.712,0,0,1,6.627,1.778Zm6.627-7.111A4.978,4.978,0,1,0,6.978,9.978,4.983,4.983,0,0,0,11.955,14.955Zm0-7.111A2.133,2.133,0,1,1,9.822,9.978,2.13,2.13,0,0,1,11.955,7.844Zm10.012,9.685a5.963,5.963,0,0,1,2.787,4.892V24.91h5.689V22.421C30.443,19.549,25.466,17.913,21.967,17.529Zm-1.479-2.574a4.978,4.978,0,1,0,0-9.955,4.9,4.9,0,0,0-2.133.5,7.767,7.767,0,0,1,0,8.96A4.9,4.9,0,0,0,20.488,14.955Z" transform="translate(-0.222 1.045)" fill="#222"/>
</svg>
